<?xml version="1.0" standalone="no"?>
<!DOCTYPE svg PUBLIC "-//W3C//DTD SVG 20010904//EN"
 "http://www.w3.org/TR/2001/REC-SVG-20010904/DTD/svg10.dtd">
<svg version="1.0" xmlns="http://www.w3.org/2000/svg"
 width="680.000000pt" height="680.000000pt" viewBox="0 0 680.000000 680.000000"
 preserveAspectRatio="xMidYMid meet">
<metadata>
Created by potrace 1.14, written by Peter Selinger 2001-2017
</metadata>
<g transform="translate(0.000000,680.000000) scale(0.100000,-0.100000)"
fill="#000000" stroke="none">
<path d="M712 6703 l3 -46 158 -67 c218 -93 273 -135 324 -246 56 -122 53 44
53 -2972 0 -3094 5 -2867 -67 -3005 -55 -105 -121 -148 -342 -221 l-126 -43
-3 -51 -3 -52 1390 0 1391 0 0 49 0 50 -87 26 c-216 64 -311 98 -368 129 -127
72 -221 203 -244 343 -8 48 -11 353 -9 1038 l3 970 425 6 c450 7 600 18 895
65 299 49 565 125 790 227 282 128 496 275 679 468 403 424 588 1128 465 1768
-102 529 -453 989 -959 1259 -348 186 -829 302 -1418 342 -95 6 -690 10 -1553
10 l-1400 0 3 -47z m2758 -167 c467 -70 754 -255 925 -595 165 -329 235 -765
222 -1381 -12 -558 -80 -913 -229 -1190 -170 -318 -427 -478 -873 -546 -65
-10 -212 -17 -417 -21 l-318 -6 0 1883 0 1883 293 -6 c184 -4 331 -12 397 -21z"/>
</g>
</svg>
